<svg width="21" height="20" viewBox="0 0 21 20" fill="none" xmlns="http://www.w3.org/2000/svg">
<g clip-path="url(#clip0_385_3400)">
<path d="M8.52064 12.0996L8.54673 12.1678C8.55486 12.1899 8.56712 12.2194 8.57763 12.2505L8.61556 12.3596C8.63041 12.4014 8.64248 12.4436 8.6583 12.4924C8.67338 12.5407 8.69123 12.5946 8.70521 12.6476L8.75404 12.8223C8.77013 12.8831 8.78365 12.9442 8.79994 13.0108C8.86972 13.2982 8.9193 13.5901 8.9483 13.8844C8.96494 14.0411 8.97201 14.1972 8.97548 14.3578C8.97572 14.5151 8.97193 14.6765 8.9572 14.8341C8.94275 14.9908 8.91895 15.1466 8.88591 15.3005C8.85278 15.4515 8.80904 15.6001 8.75502 15.745C8.64732 16.0322 8.49627 16.2977 8.30005 16.5324C8.20298 16.6508 8.08955 16.7564 7.97716 16.8657C7.86318 16.9734 7.74654 17.0812 7.62478 17.1856C7.37857 17.3993 7.12133 17.5999 6.85412 17.7866C6.58427 17.9764 6.30045 18.1522 6.00931 18.3135C5.86347 18.3935 5.71568 18.4698 5.56607 18.5426C5.41694 18.6142 5.26609 18.6821 5.11365 18.7464C4.80959 18.8732 4.50322 18.9833 4.19947 19.0745C3.90623 19.1631 3.6088 19.2372 3.30826 19.2964C2.7335 19.411 2.20596 19.458 1.81385 19.4681L1.67365 19.4705L1.54775 19.4704L1.34393 19.4649L1.21326 19.4573L1.16709 19.4533L1.16311 19.4071L1.15545 19.2765L1.15002 19.0726L1.1499 18.9467L1.15232 18.8065C1.16236 18.4144 1.20932 17.8869 1.32396 17.3121C1.38325 17.0116 1.4573 16.7142 1.54584 16.4209C1.63705 16.1172 1.74717 15.8108 1.874 15.5067C1.93825 15.3543 2.0062 15.2035 2.07779 15.0543C2.15045 14.9053 2.22662 14.757 2.30689 14.6111C2.46818 14.3199 2.64396 14.0361 2.83373 13.7663C3.02044 13.4991 3.22104 13.2418 3.43471 12.9956C3.53916 12.8739 3.64689 12.7572 3.75467 12.6432C3.864 12.5308 3.96959 12.4174 4.08799 12.3203C4.32267 12.1241 4.5881 11.9731 4.87537 11.8654C5.02028 11.8114 5.16881 11.7676 5.31986 11.7345C5.47377 11.7014 5.62952 11.6776 5.78627 11.6632C5.94388 11.6485 6.10529 11.6447 6.2626 11.6449C6.42314 11.6483 6.57924 11.6555 6.73591 11.6721C7.03025 11.7011 7.32219 11.7507 7.60959 11.8205C7.67611 11.8367 7.7372 11.8503 7.7981 11.8664L7.97271 11.9152C8.02576 11.9292 8.07974 11.947 8.12791 11.9621C8.17681 11.9779 8.21896 11.99 8.26072 12.0048L8.3699 12.0428C8.40095 12.0533 8.43048 12.0655 8.45252 12.0737C8.4974 12.0907 8.52064 12.0996 8.52064 12.0996Z" fill="#282834"/>
<path d="M3.52091 7.0998L0.688326 9.93238C0.492544 10.1282 0.631216 10.4629 0.908091 10.4629H3.28876C3.37118 10.4629 3.45024 10.4957 3.50852 10.5539L5.0543 12.0997L7.56489 7.00879H3.74067C3.69986 7.00878 3.65944 7.01681 3.62173 7.03243C3.58402 7.04804 3.54976 7.07094 3.52091 7.0998Z" fill="#50506D"/>
<path d="M8.96216 15.3355L10.5079 16.8813C10.5662 16.9396 10.599 17.0187 10.599 17.1011V19.4817C10.599 19.7586 10.9337 19.8973 11.1295 19.7015L13.9621 16.8689C14.0204 16.8106 14.0531 16.7316 14.0531 16.6492V12.825L8.96216 15.3355Z" fill="#50506D"/>
<path d="M20.2701 0.698172L20.2731 0.723055C20.275 0.739422 20.2786 0.764656 20.2811 0.795789C20.2863 0.858016 20.2979 0.954422 20.3034 1.07052C20.321 1.30934 20.3329 1.64555 20.3246 2.05005C20.3165 2.45477 20.288 2.92755 20.2262 3.44075C20.2124 3.57067 20.1926 3.6993 20.1736 3.83298C20.1559 3.96802 20.1307 4.09993 20.1077 4.23817C20.0604 4.51345 20.0014 4.79356 19.9333 5.0793C19.7915 5.67233 19.6114 6.25555 19.3941 6.82528C19.1699 7.41204 18.901 7.99813 18.5857 8.56747C18.2699 9.13634 17.9108 9.69122 17.5093 10.2186C17.1084 10.7466 16.6658 11.2475 16.1909 11.7162C15.716 12.1849 15.2095 12.622 14.6773 13.0186C14.5442 13.1177 14.4104 13.2152 14.2735 13.3084C14.1381 13.4032 13.9998 13.4938 13.8619 13.5836C13.5849 13.7618 13.302 13.9285 13.0162 14.085C12.4535 14.3928 11.8705 14.662 11.2713 14.8907C10.7019 15.1075 10.1195 15.2883 9.5274 15.432C9.24228 15.5008 8.96365 15.5612 8.68884 15.6089L8.48654 15.6454C8.41951 15.6568 8.3515 15.6663 8.28548 15.6766L8.08958 15.7065L7.89529 15.7313C7.38486 15.7958 6.91521 15.8275 6.51345 15.8385C6.11212 15.85 5.77783 15.8401 5.54173 15.8251C5.42681 15.8208 5.33103 15.8098 5.26954 15.8054C5.23872 15.8032 5.21369 15.7998 5.19751 15.7981L5.17286 15.7954C4.98607 15.7746 4.84439 15.6263 4.82447 15.447L4.82173 15.4224C4.82009 15.4062 4.81669 15.3812 4.81443 15.3504C4.81009 15.2889 4.79908 15.1931 4.79474 15.0782C4.77982 14.8421 4.7699 14.5078 4.78134 14.1065C4.7924 13.7047 4.82404 13.235 4.88861 12.7246L4.91333 12.5303L4.94322 12.3344C4.95357 12.2684 4.96306 12.2004 4.97451 12.1334L5.01095 11.9311C5.05865 11.6563 5.11911 11.3776 5.18783 11.0925C5.33154 10.5004 5.51234 9.91798 5.72915 9.3486C5.95787 8.74939 6.22706 8.16642 6.53486 7.60372C6.69138 7.31794 6.85814 7.03501 7.0363 6.75798C7.12607 6.62013 7.21669 6.4818 7.31146 6.34641C7.4047 6.2095 7.50216 6.07567 7.60126 5.94259C7.9979 5.4104 8.43494 4.90384 8.90365 4.42899C9.37232 3.95411 9.8733 3.51149 10.4012 3.11059C10.9286 2.70919 11.4835 2.34997 12.0524 2.03423C12.6217 1.71895 13.2079 1.44997 13.7946 1.22583C14.3643 1.00855 14.9475 0.828421 15.5406 0.68657C15.8263 0.618484 16.1064 0.5595 16.3817 0.512234C16.5199 0.489227 16.6519 0.464031 16.7869 0.446336C16.9206 0.427274 17.0492 0.407508 17.1791 0.393719C17.6923 0.331922 18.1651 0.303406 18.5698 0.29532C18.9743 0.287 19.3105 0.298836 19.5494 0.316531C19.6654 0.322039 19.7619 0.33368 19.8241 0.338758C19.8552 0.341336 19.8804 0.344891 19.8968 0.346766L19.9217 0.349774C20.108 0.372234 20.2486 0.519852 20.2701 0.698172Z" fill="#404056"/>
<path d="M10.0149 10.6053L10.0377 10.6669C10.0504 10.7053 10.0675 10.7604 10.0793 10.8218C10.1073 10.9489 10.1165 11.1037 10.066 11.2383C10.041 11.306 9.99495 11.3624 9.95156 11.4306L9.8073 11.6476L9.46101 12.1676C9.32349 12.3713 9.18479 12.5743 9.04492 12.7764C8.88903 13.0013 8.73128 13.2249 8.57167 13.4472L8.31738 13.7972L8.05316 14.1521C7.8739 14.3894 7.69046 14.6292 7.50394 14.8659C7.31923 15.1017 7.13219 15.3357 6.94285 15.5678C6.75609 15.7977 6.57296 16.0246 6.39273 16.2411L6.12831 16.5611C6.04074 16.6644 5.96109 16.7716 5.86859 16.861C5.77667 16.9509 5.67062 17.0217 5.54874 17.071C5.42792 17.1212 5.29566 17.1543 5.16777 17.1851C4.92669 17.2423 4.68298 17.2877 4.43749 17.3212C4.32406 17.3367 4.21558 17.3488 4.11312 17.358C4.01121 17.3677 3.91261 17.3716 3.82621 17.3778C3.73914 17.3833 3.65601 17.3828 3.58656 17.3853C3.51605 17.3867 3.45257 17.3844 3.40289 17.3843C3.35214 17.3832 3.3116 17.3806 3.28507 17.3797L3.24343 17.3769L3.24062 17.3353C3.23972 17.3088 3.23718 17.2682 3.23605 17.2175C3.23597 17.1678 3.23367 17.1044 3.23507 17.0338C3.23749 16.9643 3.23707 16.8812 3.24257 16.7942C3.24874 16.7078 3.25265 16.6092 3.26234 16.5072C3.27148 16.4048 3.28367 16.2963 3.29921 16.1829C3.33269 15.9374 3.37809 15.6937 3.43523 15.4526C3.46609 15.3247 3.49914 15.1925 3.54941 15.0716C3.59863 14.9497 3.66949 14.8437 3.75941 14.7518C3.84878 14.6593 3.95593 14.5797 4.05933 14.4921L4.37933 14.2277C4.59585 14.0474 4.82269 13.8643 5.05257 13.6776C5.28206 13.4904 5.51714 13.3023 5.75452 13.1165C5.9912 12.9299 6.23101 12.7465 6.46835 12.5672L6.82324 12.303L7.1732 12.0487C7.39548 11.8891 7.61908 11.7314 7.84398 11.5755C8.05882 11.4266 8.26347 11.2874 8.45285 11.1594L8.97285 10.8131L9.18984 10.6688C9.258 10.6254 9.31441 10.5794 9.3821 10.5544C9.51671 10.5039 9.67148 10.5131 9.79863 10.5411C9.86003 10.5529 9.91515 10.57 9.95347 10.5827L10.0149 10.6053Z" fill="#50506D"/>
<path d="M14.6632 8.07262C14.6632 9.24125 13.7158 10.1886 12.5472 10.1886C11.3785 10.1886 10.4312 9.24125 10.4312 8.07262C10.4312 6.90399 11.3785 5.95661 12.5472 5.95661C13.7158 5.95661 14.6632 6.90399 14.6632 8.07262ZM15.7268 3.54602C14.9829 3.54602 14.3799 4.14907 14.3799 4.89297C14.3799 5.63688 14.9829 6.23993 15.7268 6.23993C16.4707 6.23993 17.0738 5.63688 17.0738 4.89297C17.0738 4.14907 16.4707 3.54602 15.7268 3.54602Z" fill="#2D2D3C"/>
</g>
<defs>
<clipPath id="clip0_385_3400">
<rect width="20" height="20" fill="white" transform="translate(0.518555)"/>
</clipPath>
</defs>
</svg>
