<svg width="22" height="20" viewBox="0 0 22 20" fill="none" xmlns="http://www.w3.org/2000/svg">
<path d="M14.7959 14.6994C15.3659 14.6994 15.8281 14.0062 15.8281 13.1511C15.8281 12.296 15.3659 11.6028 14.7959 11.6028C14.2258 11.6028 13.7637 12.296 13.7637 13.1511C13.7637 14.0062 14.2258 14.6994 14.7959 14.6994Z" fill="#50506D"/>
<path d="M16.8438 9.58072C17.3508 9.58072 17.7617 8.96139 17.7617 8.1974C17.7617 7.43342 17.3508 6.81409 16.8438 6.81409C16.3368 6.81409 15.9258 7.43342 15.9258 8.1974C15.9258 8.96139 16.3368 9.58072 16.8438 9.58072Z" fill="#50506D"/>
<path d="M20.5112 2.85019L11.1706 0.0412459C11.1536 0.0370155 11.1325 0.0327852 11.1156 0.0285548C11.0986 0.0243245 11.0775 0.0200941 11.0606 0.0158638C10.9379 -0.00528793 10.8152 -0.00528793 10.6925 0.0158638C10.6756 0.0200941 10.6545 0.0243245 10.6375 0.0285548C10.6206 0.0327852 10.5995 0.0370155 10.5825 0.0412459L8.49698 0.667336L6.8133 1.17498L2.09647 2.59214L1.24617 2.84596C0.814679 2.9771 0.518555 3.37476 0.518555 3.82317V16.1631C0.518555 16.6157 0.814679 17.0091 1.24617 17.1403L10.5825 19.9577C10.6798 19.9873 10.7771 20 10.8787 20C10.976 20 11.0775 19.9873 11.1748 19.9577L20.5112 17.1487C20.9426 17.0176 21.2388 16.62 21.2388 16.1715V3.8274C21.2388 3.37899 20.9426 2.98133 20.5112 2.85019ZM3.48825 15.0632C2.9933 15.0632 2.58719 14.4583 2.58719 13.7137C2.58719 12.9692 2.98907 12.3642 3.48825 12.3642C3.9832 12.3642 4.38932 12.9692 4.38932 13.7137C4.38932 14.4583 3.9832 15.0632 3.48825 15.0632ZM5.61612 11.2178C5.0704 11.2178 4.62622 10.5494 4.62622 9.72873C4.62622 8.90804 5.0704 8.23965 5.61612 8.23965C6.16183 8.23965 6.60602 8.90804 6.60602 9.72873C6.60602 10.5494 6.16606 11.2178 5.61612 11.2178ZM8.04433 7.40204C7.47324 7.40204 7.01213 6.70826 7.01213 5.85374C7.01213 4.99921 7.47324 4.30543 8.04433 4.30543C8.61543 4.30543 9.07654 4.99921 9.07654 5.85374C9.07654 6.70826 8.61543 7.40204 8.04433 7.40204ZM19.1955 15.4101L11.8982 17.6056V2.39332L19.1955 4.58886V15.4101Z" fill="#50506D"/>
</svg>
