<svg width="33" height="32" viewBox="0 0 33 32" fill="none" xmlns="http://www.w3.org/2000/svg">
<g clip-path="url(#clip0_49_11914)">
<path d="M24.1801 8.57031C24.0777 8.48561 23.993 8.38156 23.9307 8.2641C23.8685 8.14665 23.83 8.01809 23.8175 7.88577C23.805 7.75344 23.8186 7.61995 23.8577 7.4929C23.8967 7.36585 23.9604 7.24774 24.0451 7.14531C24.1298 7.04288 24.2339 6.95813 24.3513 6.89591C24.4688 6.83369 24.5974 6.79522 24.7297 6.78268C24.9969 6.75736 25.2633 6.83924 25.4701 7.01031C27.9021 9.02994 29.5912 11.8028 30.2701 14.8903C31.022 18.2521 30.5098 21.773 28.8314 24.7812C27.153 27.7895 24.4258 30.0745 21.1701 31.2003C18.5388 32.1406 15.6869 32.2755 12.9785 31.5878C10.2701 30.9 7.82805 29.4208 5.96407 27.339C4.1001 25.2572 2.89873 22.6672 2.5133 19.8995C2.12788 17.1319 2.57589 14.3122 3.80014 11.8003C4.67228 9.97453 5.93144 8.36049 7.49014 7.07031C8.50014 6.22031 9.79014 7.77031 8.77014 8.62031C7.85014 9.39031 7.03014 10.3203 6.37014 11.3303L10.0701 13.4603C10.4301 13.6703 10.5601 13.6203 10.7501 13.3703C10.9101 13.1703 11.0901 12.9703 11.2701 12.7803C12.2001 11.8403 13.6401 13.2503 12.7101 14.2003C12.0091 14.9068 11.5225 15.7974 11.3066 16.769C11.0907 17.7405 11.1543 18.7534 11.4901 19.6903C11.7593 20.4387 12.1929 21.1172 12.759 21.6759C13.325 22.2347 14.0092 22.6593 14.761 22.9187C15.5129 23.1781 16.3133 23.2657 17.1035 23.1749C17.8936 23.0841 18.6533 22.8173 19.3268 22.3941C20.0002 21.9709 20.5701 21.4021 20.9947 20.7296C21.4193 20.057 21.6877 19.2978 21.7801 18.5079C21.8725 17.7179 21.7866 16.9173 21.5288 16.1649C21.2709 15.4125 20.8477 14.7275 20.2901 14.1603C20.1341 13.9663 20.0553 13.7214 20.0688 13.4728C20.0822 13.2242 20.187 12.9893 20.3631 12.8133C20.5392 12.6372 20.774 12.5324 21.0227 12.5189C21.2713 12.5055 21.5161 12.5843 21.7101 12.7403C21.9101 12.9403 22.0801 13.1403 22.2601 13.3503C22.5001 13.6403 22.6901 13.6503 22.9301 13.5203L26.6601 11.3703C25.9855 10.3185 25.1524 9.37743 24.1901 8.58031L24.1801 8.57031ZM9.50014 21.2603C9.77014 21.1003 9.84014 21.0003 9.71014 20.7003C9.10426 19.243 8.99188 17.6275 9.39014 16.1003C9.53014 15.5803 9.71014 15.5903 9.04014 15.2003L5.41014 13.1003C4.70011 14.7389 4.36317 16.5149 4.4237 18.2997C4.48423 20.0845 4.94072 21.8336 5.76014 23.4203L9.50014 21.2603ZM10.5101 23.0003L6.83014 25.1303C7.8504 26.499 9.15029 27.635 10.6434 28.4626C12.1365 29.2902 13.7887 29.7905 15.4901 29.9303V25.7603C15.4901 25.2803 15.4801 25.2103 14.9001 25.0803C13.5541 24.7827 12.3198 24.1101 11.3401 23.1403C11.0601 22.8603 10.9201 22.7703 10.5101 23.0003V23.0003ZM17.5101 29.9403C19.2113 29.7938 20.8625 29.2906 22.3563 28.4636C23.8501 27.6366 25.153 26.5042 26.1801 25.1403L22.6101 23.0803C22.2201 22.8503 21.9701 22.8303 21.5401 23.2503C20.803 23.9677 19.9146 24.511 18.9401 24.8403C18.6401 24.9403 18.3201 25.0203 18.0101 25.1003C17.5401 25.2203 17.5101 25.4703 17.5101 25.7603V29.9403V29.9403ZM27.2501 23.4303C28.0661 21.8476 28.5199 20.1033 28.5787 18.3236C28.6375 16.5439 28.2998 14.7734 27.5901 13.1403L23.8901 15.2803C23.5501 15.4803 23.4801 15.5603 23.6201 16.1003C23.979 17.5086 23.9094 18.9919 23.4201 20.3603C23.2201 20.9203 23.1701 21.0703 23.6201 21.3303L27.2501 23.4303ZM12.8701 0.00030878C14.2001 0.00030878 14.2001 2.02031 12.8701 2.02031H11.2401L16.5101 10.4803L21.7601 2.02031H20.0701C18.7501 2.02031 18.7501 0.0103088 20.0701 0.0103088L22.9701 0.00030878C23.2128 -0.0114282 23.454 0.0445664 23.6667 0.162033C23.8794 0.2795 24.0553 0.453809 24.1746 0.665475C24.2939 0.877142 24.352 1.11782 24.3424 1.36062C24.3328 1.60341 24.2558 1.83874 24.1201 2.04031L17.6601 12.4403C17.1701 13.2603 15.8501 13.2403 15.3501 12.4403L8.87014 2.04031C8.28014 1.09031 8.97014 0.00030878 10.0401 0.00030878L12.8701 0.0103088V0.00030878Z" fill="url(#paint0_linear_49_11914)"/>
</g>
<defs>
<linearGradient id="paint0_linear_49_11914" x1="4.08148" y1="30.3409" x2="32.6846" y2="6.15271" gradientUnits="userSpaceOnUse">
<stop stop-color="#AD48F2"/>
<stop offset="1" stop-color="#8E30F3"/>
</linearGradient>
<clipPath id="clip0_49_11914">
<rect width="32" height="32" fill="white" transform="translate(0.5)"/>
</clipPath>
</defs>
</svg>
