<svg width="33" height="32" viewBox="0 0 33 32" fill="none" xmlns="http://www.w3.org/2000/svg">
<g clip-path="url(#clip0_69_12319)">
<path d="M24.1801 8.57019C24.0777 8.48548 23.993 8.38144 23.9307 8.26398C23.8685 8.14653 23.83 8.01797 23.8175 7.88565C23.805 7.75332 23.8186 7.61983 23.8577 7.49278C23.8967 7.36573 23.9604 7.24762 24.0451 7.14519C24.1298 7.04276 24.2339 6.95801 24.3513 6.89579C24.4688 6.83357 24.5974 6.7951 24.7297 6.78256C24.9969 6.75724 25.2633 6.83912 25.4701 7.01019C27.9021 9.02981 29.5912 11.8027 30.2701 14.8902C31.022 18.2519 30.5098 21.7728 28.8314 24.7811C27.153 27.7893 24.4258 30.0744 21.1701 31.2002C18.5388 32.1405 15.6869 32.2754 12.9785 31.5876C10.2701 30.8999 7.82805 29.4207 5.96407 27.3389C4.1001 25.2571 2.89873 22.6671 2.5133 19.8994C2.12788 17.1318 2.57589 14.3121 3.80014 11.8002C4.67228 9.9744 5.93144 8.36037 7.49014 7.07019C8.50014 6.22019 9.79014 7.77019 8.77014 8.62019C7.85014 9.39019 7.03014 10.3202 6.37014 11.3302L10.0701 13.4602C10.4301 13.6702 10.5601 13.6202 10.7501 13.3702C10.9101 13.1702 11.0901 12.9702 11.2701 12.7802C12.2001 11.8402 13.6401 13.2502 12.7101 14.2002C12.0091 14.9067 11.5225 15.7973 11.3066 16.7688C11.0907 17.7404 11.1543 18.7533 11.4901 19.6902C11.7593 20.4386 12.1929 21.1171 12.759 21.6758C13.325 22.2345 14.0092 22.6592 14.761 22.9186C15.5129 23.178 16.3133 23.2655 17.1035 23.1747C17.8936 23.0839 18.6533 22.8171 19.3268 22.394C20.0002 21.9708 20.5701 21.402 20.9947 20.7294C21.4193 20.0569 21.6877 19.2977 21.7801 18.5078C21.8725 17.7178 21.7866 16.9172 21.5288 16.1648C21.2709 15.4124 20.8477 14.7274 20.2901 14.1602C20.1341 13.9661 20.0553 13.7213 20.0688 13.4727C20.0822 13.2241 20.187 12.9892 20.3631 12.8131C20.5392 12.6371 20.774 12.5323 21.0227 12.5188C21.2713 12.5053 21.5161 12.5842 21.7101 12.7402C21.9101 12.9402 22.0801 13.1402 22.2601 13.3502C22.5001 13.6402 22.6901 13.6502 22.9301 13.5202L26.6601 11.3702C25.9855 10.3184 25.1524 9.3773 24.1901 8.58019L24.1801 8.57019ZM9.50014 21.2602C9.77014 21.1002 9.84014 21.0002 9.71014 20.7002C9.10426 19.2429 8.99188 17.6273 9.39014 16.1002C9.53014 15.5802 9.71014 15.5902 9.04014 15.2002L5.41014 13.1002C4.70011 14.7388 4.36317 16.5148 4.4237 18.2996C4.48423 20.0844 4.94072 21.8334 5.76014 23.4202L9.50014 21.2602ZM10.5101 23.0002L6.83014 25.1302C7.8504 26.4989 9.15029 27.6348 10.6434 28.4624C12.1365 29.29 13.7887 29.7904 15.4901 29.9302V25.7602C15.4901 25.2802 15.4801 25.2102 14.9001 25.0802C13.5541 24.7826 12.3198 24.11 11.3401 23.1402C11.0601 22.8602 10.9201 22.7702 10.5101 23.0002ZM17.5101 29.9402C19.2113 29.7936 20.8625 29.2905 22.3563 28.4635C23.8501 27.6365 25.153 26.5041 26.1801 25.1402L22.6101 23.0802C22.2201 22.8502 21.9701 22.8302 21.5401 23.2502C20.803 23.9676 19.9146 24.5109 18.9401 24.8402C18.6401 24.9402 18.3201 25.0202 18.0101 25.1002C17.5401 25.2202 17.5101 25.4702 17.5101 25.7602V29.9402ZM27.2501 23.4302C28.0661 21.8475 28.5199 20.1031 28.5787 18.3235C28.6375 16.5438 28.2998 14.7733 27.5901 13.1402L23.8901 15.2802C23.5501 15.4802 23.4801 15.5602 23.6201 16.1002C23.979 17.5084 23.9094 18.9918 23.4201 20.3602C23.2201 20.9202 23.1701 21.0702 23.6201 21.3302L27.2501 23.4302ZM12.8701 0.00018671C14.2001 0.00018671 14.2001 2.02019 12.8701 2.02019H11.2401L16.5101 10.4802L21.7601 2.02019H20.0701C18.7501 2.02019 18.7501 0.0101867 20.0701 0.0101867L22.9701 0.00018671C23.2128 -0.0115502 23.454 0.0444443 23.6667 0.161911C23.8794 0.279378 24.0553 0.453687 24.1746 0.665353C24.2939 0.87702 24.352 1.1177 24.3424 1.36049C24.3328 1.60329 24.2558 1.83862 24.1201 2.04019L17.6601 12.4402C17.1701 13.2602 15.8501 13.2402 15.3501 12.4402L8.87014 2.04019C8.28014 1.09019 8.97014 0.00018671 10.0401 0.00018671L12.8701 0.0101867V0.00018671Z" fill="url(#paint0_linear_69_12319)"/>
</g>
<defs>
<linearGradient id="paint0_linear_69_12319" x1="4.08148" y1="30.3408" x2="32.6846" y2="6.15258" gradientUnits="userSpaceOnUse">
<stop stop-color="#AD48F2"/>
<stop offset="1" stop-color="#8E30F3"/>
</linearGradient>
<clipPath id="clip0_69_12319">
<rect width="32" height="32" fill="white" transform="translate(0.5)"/>
</clipPath>
</defs>
</svg>
