<svg width="19" height="20" viewBox="0 0 19 20" fill="none" xmlns="http://www.w3.org/2000/svg">
<path d="M11.3281 0.740741L9.25926 2.80958L7.19042 0.740741H11.3281ZM12.2999 5.47417C12.3582 5.50787 12.4219 5.52384 12.4848 5.52384C12.6128 5.52384 12.7373 5.45741 12.8059 5.33861L13.0925 4.84222C13.9161 5.37931 14.6207 6.08394 15.1578 6.90755L11.3822 9.08736C11.2465 9.16574 11.1795 9.31704 11.2014 9.46315C11.1818 9.54634 11.1905 9.63662 11.233 9.71843C11.3979 10.036 11.4814 10.38 11.4814 10.7407C11.4814 11.9661 10.4845 12.963 9.25921 12.963C8.03389 12.963 7.03699 11.9661 7.03699 10.7407C7.03699 9.51542 8.03389 8.51852 9.25921 8.51852C9.61273 8.51852 9.95051 8.59893 10.2631 8.75759C10.3388 8.79602 10.4213 8.80556 10.4987 8.79106C10.5294 8.79903 10.5606 8.80301 10.5915 8.80301C10.7195 8.80301 10.844 8.73657 10.9126 8.61778L12.0982 6.56435C12.2005 6.38722 12.1398 6.16069 11.9626 6.05843C11.7855 5.95611 11.559 6.0168 11.4567 6.19398L10.4084 8.00972C10.1586 7.90417 9.89829 7.83421 9.62968 7.80102V3.71343C10.6412 3.76611 11.5968 4.03343 12.4518 4.47051L12.1644 4.96824C12.0621 5.14537 12.1228 5.3719 12.2999 5.47417ZM14.0741 11.1111H16.2866C16.2338 12.1226 15.9666 13.0782 15.5295 13.9332L11.9902 11.8898C12.0935 11.6452 12.1641 11.3837 12.1982 11.1111H12.5926C12.7971 11.1111 12.963 10.9453 12.963 10.7407C12.963 10.5362 12.7971 10.3704 12.5926 10.3704H12.1987C12.1649 10.1024 12.0947 9.83968 11.9905 9.59153L15.5295 7.54829C15.9666 8.40329 16.2338 9.35889 16.2866 10.3704H14.0741C13.8695 10.3704 13.7037 10.5362 13.7037 10.7407C13.7037 10.9453 13.8695 11.1111 14.0741 11.1111ZM13.0925 16.6393L11.0491 13.1C11.2637 12.9369 11.4554 12.7451 11.6186 12.5306L15.1578 14.5739C14.6207 15.3975 13.9161 16.1022 13.0925 16.6393ZM6.0668 17.011L8.11018 13.4717C8.35477 13.575 8.61625 13.6456 8.88889 13.6797V17.7681C7.87741 17.7153 6.9218 17.4481 6.0668 17.011ZM3.36074 14.5739L6.89995 12.5306C7.06315 12.7451 7.25486 12.9369 7.46944 13.1L5.42606 16.6393C4.60245 16.1022 3.89782 15.3975 3.36074 14.5739ZM5.42606 4.84222L7.46944 8.38144C7.25486 8.54463 7.06315 8.73634 6.89995 8.95093L3.36074 6.90755C3.89782 6.08394 4.60245 5.37931 5.42606 4.84222ZM8.88889 7.80176C8.61625 7.83593 8.35477 7.90644 8.11018 8.00977L6.0668 4.47051C6.9218 4.03343 7.87741 3.76616 8.88889 3.71343V7.80176ZM2.98903 7.54829L6.52829 9.59167C6.425 9.83625 6.35444 10.0977 6.32028 10.3704H2.23194C2.28468 9.35889 2.55194 8.40329 2.98903 7.54829ZM6.32028 11.1111C6.35444 11.3837 6.425 11.6452 6.52829 11.8898L2.98903 13.9332C2.55194 13.0782 2.28468 12.1226 2.23194 11.1111H6.32028ZM9.62963 13.6797C9.90227 13.6456 10.1637 13.575 10.4083 13.4717L12.4517 17.011C11.5967 17.4481 10.6411 17.7153 9.62963 17.7681V13.6797ZM0.740741 10.7407C0.740741 8.71384 1.46468 6.75 2.77921 5.21111C4.06125 3.71023 5.82634 2.69843 7.7569 2.35477L8.41153 3.0094C7.32519 3.12769 6.30523 3.47023 5.3994 3.99023C5.38963 3.99477 5.37991 3.99958 5.37042 4.00505C5.3588 4.01176 5.34773 4.01907 5.33708 4.02681C4.18477 4.70255 3.22106 5.66625 2.54532 6.81856C2.53759 6.82917 2.53028 6.84028 2.52356 6.8519C2.51806 6.86148 2.51319 6.87125 2.50861 6.88111C1.85532 8.01912 1.48148 9.33708 1.48148 10.7407C1.48148 12.1444 1.85532 13.4624 2.50856 14.6004C2.51315 14.6103 2.51796 14.62 2.52352 14.6296C2.5288 14.6387 2.53495 14.647 2.54088 14.6555C3.21685 15.8111 4.18227 16.7775 5.33708 17.4547C5.34769 17.4625 5.35875 17.4698 5.37042 17.4765C5.37718 17.4804 5.38421 17.4832 5.39106 17.4866C6.53102 18.1429 7.85208 18.5185 9.25926 18.5185C10.6664 18.5185 11.9875 18.1429 13.1275 17.4866C13.1344 17.4832 13.1414 17.4804 13.1481 17.4765C13.1598 17.4698 13.1708 17.4625 13.1815 17.4547C14.3363 16.7775 15.3017 15.8111 15.9777 14.6555C15.9836 14.6469 15.9898 14.6387 15.995 14.6296C16.0006 14.62 16.0054 14.6103 16.01 14.6004C16.6632 13.4624 17.037 12.1444 17.037 10.7407C17.037 9.33708 16.6632 8.01912 16.01 6.88106C16.0054 6.8712 16.0006 6.86144 15.995 6.85185C15.9883 6.84023 15.981 6.82917 15.9732 6.81856C15.2975 5.66625 14.3338 4.70255 13.1815 4.02681C13.1709 4.01907 13.1598 4.01176 13.1481 4.00505C13.1385 3.99949 13.1287 3.99463 13.1188 3.99C12.213 3.47014 11.1932 3.12769 10.107 3.0094L10.7616 2.35477C12.6926 2.69852 14.4581 3.71079 15.7402 5.21218C17.0542 6.75093 17.7778 8.71431 17.7778 10.7407C17.7778 15.4379 13.9564 19.2593 9.25926 19.2593C4.56213 19.2593 0.740741 15.4379 0.740741 10.7407Z" fill="#50506D"/>
</svg>
